<svg width="133" height="14" viewBox="0 0 133 14" fill="none" xmlns="http://www.w3.org/2000/svg">
<g clip-path="url(#clip0_31_625)">
<path d="M8.45543 3.58475H8.42284C7.73659 2.74116 6.58837 2.33593 4.96093 2.33593C2.37695 2.34178 0 3.77957 0 7.07598C0 10.3724 2.37695 11.8102 4.96093 11.8102C6.73214 11.8102 7.83627 11.3562 8.54936 10.5127H8.58194V11.4537H12.4426V0H8.45543V3.58475ZM6.26825 9.08656C4.72131 9.08656 4.08299 8.24297 4.08299 7.07598C4.08299 5.94211 4.81716 5.06541 6.25291 5.06541C7.79985 5.06541 8.45543 5.82716 8.45543 7.07598C8.45543 8.3248 7.79985 9.08656 6.26825 9.08656Z" fill="white"/>
<path d="M19.746 2.22101C15.8221 2.22101 13.5256 3.93935 13.5256 7.00392C13.5256 10.2458 15.9179 11.8024 20.114 11.8024C21.9485 11.8024 23.3191 11.5102 24.3408 10.992C25.3625 10.4737 26.0315 9.71001 26.3343 8.78655H22.0827C21.6533 9.3379 21.0475 9.56584 20.0105 9.56584C18.2546 9.56584 17.601 8.59173 17.601 7.9605H26.3746C26.4455 3.54191 23.6162 2.22101 19.746 2.22101ZM17.6086 5.92265C17.8156 4.80436 18.6131 4.36406 20.0009 4.36406C21.3887 4.36406 22.282 4.96412 22.3625 5.92265H17.6086Z" fill="white"/>
<path d="M31.4199 4.28807H31.3892V2.58531H27.5286V11.4537H31.5157V8.12998C31.5157 6.21682 33.032 5.74729 34.4524 5.74729C35.1278 5.76821 35.7977 5.87689 36.446 6.0707V2.43919C36.0124 2.37479 35.5749 2.34223 35.1367 2.34178C33.7757 2.34178 32.4569 2.90872 31.4199 4.28807Z" fill="white"/>
<path d="M50.4662 2.34178C48.8541 2.34178 47.8017 3.00613 47.2592 3.81659C46.7973 2.94184 46.0938 2.34178 44.3724 2.34178C42.7124 2.34178 41.7405 2.97496 41.1137 3.80101H41.0811V2.58531H37.2262V11.4537H41.2133V6.75258C41.2133 5.66547 41.7405 5.26023 42.5686 5.26023C43.2702 5.26023 43.6382 5.55247 43.6382 6.44281V11.4537H47.4988V6.75258C47.4988 5.66547 48.0241 5.26023 48.8541 5.26023C49.5557 5.26023 49.9237 5.55247 49.9237 6.44281V11.4537H53.9032V5.33816C53.9032 3.19511 52.3793 2.34178 50.4662 2.34178Z" fill="white"/>
<path d="M67.4652 5.79602C67.4652 3.15227 65.855 2.22881 61.7873 2.22881C59.6787 2.22881 58.2296 2.39051 57.2577 2.84445C56.2858 3.29839 55.774 4.06014 55.5325 5.27584H59.5196C59.7113 4.41667 60.6218 4.27055 61.5305 4.27055C62.6633 4.27055 63.3803 4.5472 63.3803 5.12972C63.3803 5.61678 63.11 5.8116 62.3125 5.86031L58.9465 6.02201C55.9945 6.15255 54.8616 7.19095 54.8616 8.80993C54.8616 11.0796 56.5523 11.8102 59.234 11.8102C61.3541 11.8102 62.7113 11.4206 63.6045 10.5789C63.6157 10.8754 63.6633 11.1693 63.7464 11.4537H67.8313C67.5703 11.0448 67.4417 10.5632 67.4632 10.0763L67.4652 5.79602ZM63.4876 7.80659C63.4876 9.33011 62.0039 9.67105 60.664 9.67105C59.6749 9.67105 59.1803 9.28141 59.1803 8.66577C59.1803 8.09688 59.5311 7.85335 60.2653 7.78906C61.6857 7.66048 62.8186 7.56307 63.4876 7.41695V7.80659Z" fill="white"/>
<path d="M72.9839 0.00579834H68.9949V11.4536H72.9839V0.00579834Z" fill="white"/>
<path d="M80.5269 2.22101C76.028 2.22101 74.0651 3.74453 74.0651 7.00392C74.0651 10.2633 76.028 11.8024 80.5269 11.8024C85.0259 11.8024 86.9869 10.2789 86.9869 7.00392C86.9869 3.72894 85.024 2.22101 80.5269 2.22101ZM80.5269 9.1762C78.9302 9.1762 78.2458 8.43003 78.2458 7.00392C78.2458 5.60899 78.9302 4.84723 80.5269 4.84723C82.1237 4.84723 82.808 5.60899 82.808 7.00392C82.808 8.43782 82.1371 9.18399 80.5269 9.18399V9.1762Z" fill="white"/>
<path d="M96.4582 3.58482C95.6608 2.78994 94.4647 2.336 92.8698 2.336C89.9024 2.336 87.5887 3.82834 87.5887 6.62211C87.5887 9.41588 89.4386 10.9082 92.8698 10.9082C94.2883 10.9082 95.5324 10.6647 96.3317 9.95164V10.2984C96.3317 11.5141 95.772 12.0324 94.1445 12.0324C93.694 12.0342 93.2466 11.9571 92.8219 11.8044C92.6222 11.7522 92.4471 11.6301 92.3273 11.4596H87.9185C88.3823 12.8428 89.8794 14.004 94.2442 14.004C98.2333 14.004 100.323 13.248 100.323 10.4114V2.58537H96.4582V3.58482ZM94.0333 8.4554C92.3906 8.4554 91.7676 7.64493 91.7676 6.68835C91.7676 5.76294 92.3906 4.95247 94.0333 4.95247C95.724 4.95247 96.3336 5.76294 96.3336 6.68835C96.3336 7.66052 95.726 8.47098 94.0353 8.47098L94.0333 8.4554Z" fill="white"/>
<path d="M105.87 2.58531H101.883V11.4537H105.87V2.58531Z" fill="white"/>
<path d="M105.87 0.0214539H101.883V1.71057H105.87V0.0214539Z" fill="white"/>
<path d="M113.223 4.75371C113.716 4.73709 114.205 4.83157 114.657 5.03036C114.873 5.12594 115.059 5.28161 115.191 5.47945C115.324 5.67728 115.4 5.90925 115.409 6.14865H119.587C119.156 3.19513 116.923 2.22101 113.174 2.22101C109.505 2.22101 106.635 3.35488 106.635 6.98638C106.635 10.6666 109.51 11.8024 113.174 11.8024C115.919 11.8024 119.171 11.3816 119.587 7.71113H115.409C115.136 8.86058 114.306 9.18594 113.191 9.18594C111.611 9.18594 110.814 8.30924 110.814 6.94742C110.814 5.7629 111.437 4.75371 113.223 4.75371Z" fill="white"/>
<path d="M132.634 10.0763V5.79022C132.634 3.14647 131.022 2.22301 126.954 2.22301C124.846 2.22301 123.396 2.38471 122.424 2.83865C121.453 3.29259 120.941 4.05435 120.699 5.27004H124.688C124.88 4.41087 125.789 4.26476 126.697 4.26476C127.83 4.26476 128.547 4.5414 128.547 5.12393C128.547 5.61098 128.277 5.80581 127.479 5.85451L124.113 6.01622C121.163 6.14675 120.03 7.18516 120.03 8.80414C120.03 11.0738 121.721 11.8044 124.401 11.8044C126.523 11.8044 127.878 11.4148 128.771 10.5731C128.782 10.8698 128.83 11.1638 128.915 11.4479H132.998C132.74 11.0402 132.612 10.5608 132.634 10.0763ZM128.645 7.80664C128.645 9.33016 127.163 9.6711 125.821 9.6711C124.834 9.6711 124.338 9.28145 124.338 8.66581C124.338 8.09693 124.69 7.8534 125.424 7.78911C126.843 7.66052 127.976 7.56311 128.645 7.417V7.80664Z" fill="white"/>
</g>
<defs>
<clipPath id="clip0_31_625">
<rect width="133" height="14" fill="white"/>
</clipPath>
</defs>
</svg>
