<?xml version="1.0" encoding="UTF-8" standalone="no"?>
<!-- Created with Inkscape (http://www.inkscape.org/) -->

<svg
   version="1.1"
   id="svg2"
   width="2560"
   height="1440"
   viewBox="0 0 2560 1440"
   sodipodi:docname="Salon_hair &amp; Beauty_logo-01.eps"
   xmlns:inkscape="http://www.inkscape.org/namespaces/inkscape"
   xmlns:sodipodi="http://sodipodi.sourceforge.net/DTD/sodipodi-0.dtd"
   xmlns="http://www.w3.org/2000/svg"
   xmlns:svg="http://www.w3.org/2000/svg">
  <defs
     id="defs6" />
  <sodipodi:namedview
     id="namedview4"
     pagecolor="#ffffff"
     bordercolor="#000000"
     borderopacity="0.25"
     inkscape:showpageshadow="2"
     inkscape:pageopacity="0.0"
     inkscape:pagecheckerboard="0"
     inkscape:deskcolor="#d1d1d1" />
  <g
     id="g8"
     inkscape:groupmode="layer"
     inkscape:label="ink_ext_XXXXXX"
     transform="matrix(1.3333333,0,0,-1.3333333,0,1440)">
    <g
       id="g10"
       transform="scale(0.1)">
      <path
         d="M 19186.4,0 H 3.65625 V 10788.4 H 19186.4 V 0"
         style="fill:#100f0d;fill-opacity:1;fill-rule:nonzero;stroke:none"
         id="path12" />
      <path
         d="m 5798.71,3276.84 c 19.29,-23.35 39.59,-37.38 38.38,-49.22 -1.4,-13.78 -20.47,-33.81 -34.06,-35.74 -10.74,-1.52 -32.74,18.83 -35.03,32.03 -2.14,12.25 15.2,27.89 30.71,52.93"
         style="fill:#ce841a;fill-opacity:1;fill-rule:nonzero;stroke:none"
         id="path14" />
      <path
         d="m 6291.18,3418.81 c -27.45,-18.58 -43.2,-37.38 -55.37,-35.29 -13.44,2.31 -28.93,22.37 -32.85,37.47 -1.85,7.11 20.89,28.65 33.18,29.24 13.69,0.66 28.17,-15.07 55.04,-31.42"
         style="fill:#ce841a;fill-opacity:1;fill-rule:nonzero;stroke:none"
         id="path16" />
      <path
         d="m 6100.21,3257.45 c -25.48,-18.96 -40.38,-38.53 -53.12,-37.22 -13.71,1.41 -25.41,22.41 -37.99,34.87 12.54,11.9 23.93,31.32 37.96,33.48 12.45,1.91 27.85,-15.35 53.15,-31.13"
         style="fill:#ce841a;fill-opacity:1;fill-rule:nonzero;stroke:none"
         id="path18" />
      <path
         d="m 5983.28,3218.97 c -27.58,-16.45 -42.92,-32.96 -56.33,-31.51 -13.13,1.41 -24.28,21.11 -36.3,32.78 12.55,11.28 24.38,30.35 37.88,31.61 13.13,1.23 27.98,-15.77 54.75,-32.88"
         style="fill:#ce841a;fill-opacity:1;fill-rule:nonzero;stroke:none"
         id="path20" />
      <path
         d="m 4976.61,5568.34 c -1.94,-101.31 -100.88,-158.08 -213.51,-162.9 -150.59,-6.44 -256.19,76.75 -343.71,186.81 -141.16,177.53 -209.15,386.17 -242.14,606.55 -31.69,211.64 -29.15,423.35 25,632.25 120.91,466.47 421.3,753.43 885.77,862.28 399.39,93.59 752.85,-13.96 1053.67,-288 240.63,-219.22 392.6,-491.36 434.52,-815.89 36.66,-283.83 -31.15,-547.12 -187.99,-787.33 -147.2,-225.42 -348.19,-397.8 -553.7,-565.96 -196.42,-160.71 -398.76,-315.13 -565.99,-508.03 -156.82,-180.9 -281.87,-378.19 -313.8,-623.15 -27.73,-212.69 5.91,-414.43 106.13,-602.87 115.16,-216.53 286.75,-372.38 526.08,-437.99 223.99,-61.4 445.23,-57.18 639.21,91.84 191.93,147.45 270.92,351.67 259.59,588.43 -7.85,163.96 -181.26,293.54 -342.31,268.24 -80.05,-12.57 -135.19,-87 -128.68,-181.26 3.58,-51.85 -11.59,-94.77 -45.1,-131.54 -74.47,-81.71 -194.55,-62.73 -239.32,39.76 -48.82,111.76 -30.13,220.69 36.04,318.2 125.94,185.6 404.99,206.88 591.41,96.98 182.07,-107.35 265.62,-273.33 270.19,-481.22 5.88,-267.86 -93.99,-485.78 -315,-641.4 -147.51,-103.87 -317.18,-143.1 -494.42,-138.33 -252.86,6.8 -476.42,94 -665,266.18 -184.58,168.53 -290.97,377.81 -324.42,623.84 -46.44,341.52 48.17,642.38 262.63,910.47 163.18,203.98 367.38,362.53 563.38,531.05 170.39,146.5 343.96,291.08 499.87,452.24 243.67,251.89 356.88,560.53 331.44,912.67 -13.2,182.83 -91.87,344.18 -194.39,493.47 -115.2,167.73 -251.95,316.09 -431.97,414.22 -162.26,88.45 -337.43,120.12 -516.51,53.38 -95.82,-35.72 -147.86,-121.2 -143.3,-207.04 5.2,-98.16 69.68,-174.56 173.31,-205.11 8.98,-2.65 18.23,-4.35 28.39,-6.73 -53.52,-62.25 -215.27,-87.15 -293.13,-47.76 -101.3,51.24 -148.28,140.48 -173.68,245.05 -26.79,110.31 40.53,194.26 89.4,288.2 -178.07,-52.45 -295.18,-201.97 -296.61,-380.06 -0.55,-67.99 10.5,-136.51 21.21,-204 9,-56.71 -4.31,-104.46 -41.87,-145.82 -34.31,-37.78 -72.83,-71.97 -105.13,-111.32 -123.31,-150.22 -28.6,-350.84 90.56,-417.11 48.95,-27.23 105.57,-46.68 160.91,-55.12 111.97,-17.06 181.75,50.88 237.96,136.96 6,9.2 11.25,19.05 18.32,27.35 48.67,57.12 117.53,77.5 169.59,50.72 61.8,-31.8 94.82,-117 77.51,-195.45 -23.48,-106.41 -99.98,-161.75 -194.65,-192.04 -204.64,-65.5 -406.82,-45.65 -603.38,35.12 -52.36,21.51 -100.38,53.59 -158.43,85.19 -9.11,-58.12 -19.15,-116.54 -27.3,-175.22 -31.85,-229.34 126.7,-440.36 286.53,-522.21 108.43,-55.54 214.34,-54.01 317.96,12.13 l -1.14,1.28"
         style="fill:#e49418;fill-opacity:1;fill-rule:nonzero;stroke:none"
         id="path22" />
      <path
         d="m 6624.04,3984.45 c -69.09,75.23 -135.49,147.54 -207.61,226.07 24.75,61.17 53.7,133.34 83.1,205.32 148.34,363.16 296.88,726.24 445.2,1089.42 172.49,422.4 347.04,844 515.8,1267.89 46.88,117.77 77.76,242.04 113.57,364.03 42.37,144.34 -37.14,249.08 -132.59,316.39 -89.3,62.97 -196.84,78.74 -301.35,100.53 -15.73,3.28 -41.67,12.35 -42.75,21.2 -3.76,30.82 -0.42,63.02 4.85,93.91 0.84,4.92 25.46,8.14 39.09,8.17 263.42,0.51 526.85,0.47 790.27,0.45 172.33,-0.01 344.67,-0.05 517.01,-0.36 22.98,-0.04 54.88,6.37 48.8,-32 -5.1,-32.16 29.66,-81.45 -34.81,-92.18 -214.69,-35.73 -365.46,-161.04 -483.33,-337.59 -103.05,-154.36 -166.34,-326.7 -236.54,-496 -98.97,-238.7 -194.96,-478.63 -292.36,-717.98 -78.75,-193.51 -157.42,-387.05 -236.62,-580.37 -151.78,-370.47 -304,-740.77 -455.85,-1111.22 -40.52,-98.86 -80.27,-198.03 -120.54,-296.99 -4.66,-11.43 -10.4,-22.41 -13.34,-28.69"
         style="fill:#e49418;fill-opacity:1;fill-rule:nonzero;stroke:none"
         id="path24" />
      <path
         d="m 5081.33,7735.16 c -135.41,-31 -261.85,-78.4 -378.68,-152.44 -157.58,-99.86 -283.28,-231.65 -394.2,-379.67 -126.17,-168.36 -212.35,-359.44 -313.09,-542.38 -37.37,-67.86 -81.49,-135.17 -135.35,-190.19 -168.55,-172.2 -491.94,-158.87 -609.83,91.85 -60.62,128.91 -15.25,266.58 101.52,325.03 79.12,39.6 176.79,-13 186.28,-101.35 4.86,-45.26 1.88,-88.2 -32.81,-125.14 -19.21,-20.45 -33.36,-47.06 -44.84,-73.08 -28.53,-64.64 -5.62,-111.19 61.67,-132.89 71.88,-23.18 137.13,1.63 197.42,34.22 131.48,71.08 219.74,185.72 294,315.67 -8.45,-3.85 -17.61,-6.65 -25.25,-11.73 -97.31,-64.71 -196.41,-58.64 -293.36,-2.56 -86.11,49.81 -132.42,163.36 -114.47,265.88 19.09,109.1 113.49,204.33 222.64,224.63 91.26,16.97 189.17,-56.26 195.69,-145.18 3.51,-47.73 -23.24,-76.21 -61.9,-91.9 -37.74,-15.32 -77.57,-18.65 -110.56,16.38 -29.49,31.33 -25.76,61.24 -3.07,94.59 10.12,14.89 23.87,44.09 18.49,49.53 -14.95,15.14 -38.74,28.51 -59.61,29.43 -47.14,2.05 -95.79,-47.35 -102.28,-95.96 -13.46,-100.8 43.09,-209.28 133.1,-229.77 42.09,-9.58 94.7,3.28 136.37,20.73 79.94,33.46 138.93,95.26 183.14,169.89 145.98,246.41 343.88,438.48 599.32,569.01 97.93,50.04 203.33,74.44 313.91,72.83 11.94,-0.17 23.83,-3.54 35.75,-5.43"
         style="fill:#e49418;fill-opacity:1;fill-rule:nonzero;stroke:none"
         id="path26" />
      <path
         d="m 4977.75,5567.06 c -3.53,14.5 -4.88,40.53 -10.94,41.68 -48.61,9.22 -50.62,53.44 -65.18,85.18 -49.85,108.64 -95.97,219 -143.33,328.78 -1.79,4.16 -1.62,9.17 -3.38,20.12 222.37,-17.19 442.78,-27.42 618.79,159.83 8.06,-18.42 16.31,-37.22 24.52,-56.02 17.15,-39.26 34.45,-78.46 51.4,-117.8 27.06,-62.85 56.8,-119.72 39.71,-197.63 -23.61,-107.64 1.61,-212.6 94.89,-297.67 -194.11,-29.17 -366.8,-92.22 -529.54,-215.47 -15.64,62.34 -27.56,116.45 -43.2,169.46 -8.23,27.89 -22.96,53.85 -34.82,80.76 -0.06,0.06 1.08,-1.22 1.08,-1.22"
         style="fill:#e49418;fill-opacity:1;fill-rule:nonzero;stroke:none"
         id="path28" />
      <path
         d="m 4811.49,8325.76 c 6.71,57.5 29.6,104.11 92.9,139.43 -54.69,-188.42 -1.07,-363.83 15.52,-543.42 -365.28,-89.07 -645.2,-298.03 -867.25,-596.45 -144.08,91.21 -277.36,206.46 -460.32,233.94 43.03,53.02 94.76,50.42 132.73,40.33 34.68,22.12 62.4,53.8 81.62,49.29 48.01,-11.27 58.76,-53.13 37.14,-105.78 41.78,-10.46 77.86,-24.84 114.8,-27.59 67.03,-4.98 108.92,45.07 92.81,110.89 -8.51,34.79 -25.56,68.68 -44.92,99.05 -7.75,12.15 -35.74,9.74 -48.04,21.02 -19.35,17.73 -39.42,39.58 -46.63,63.47 -3.26,10.83 28.35,46.01 35.92,43.66 22.32,-6.93 56.93,-26.68 57.32,-42.15 1.24,-49.14 33.26,-52.47 65.8,-58.32 104.86,-18.83 184.17,45.7 169.97,140.83 -6.47,43.35 -22.54,85.27 -35.5,132.36 -35.97,-25.48 -66.63,-37.37 -92.7,-1.87 -30.55,41.6 -12.92,73.67 26.74,98.73 -79.24,43.17 -82.75,52.34 -64.04,160.9 98.1,-21.69 113.01,-37 115.35,-122.94 35.87,21.6 71.36,32.82 96.14,-11.99 21.25,-38.42 6.37,-66.95 -33.02,-90.45 40.67,-49.01 83.45,-91.96 143.71,-105.85 23.88,-5.5 63.71,2.29 77.26,19.24 30.76,38.46 52.4,85.23 71.62,131.19 4.91,11.74 -13.02,33.07 -20.64,49.91 -0.55,1.22 -2.66,1.67 -3.93,2.64 -25.81,19.67 -39.36,46.31 -21.23,74.52 8.82,13.73 35.56,26.93 50.39,23.57 32.93,-7.44 53.86,-36.98 41.65,-69.41 -15.92,-42.29 3.48,-69.88 24.69,-99.73 27.55,-38.76 63.01,-65.73 112.69,-57.71 48.49,7.83 65.09,47.57 73.87,89.82 4.83,23.22 7.05,47.49 6.19,71.13 -0.32,9.02 -11.02,22.96 -19.65,25.44 -38.35,11.05 -61.78,36.72 -49.68,73.15 7.05,21.22 38.02,34.49 58.22,51.34 4.17,-4.06 8.34,-8.13 12.5,-12.19"
         style="fill:#e49418;fill-opacity:1;fill-rule:nonzero;stroke:none"
         id="path30" />
      <path
         d="m 4729.97,4214.38 c -83.18,702.29 289.67,1275.22 1092.63,1278.48 -77.73,-65.51 -150.14,-124.36 -220.13,-185.96 -160.42,-141.2 -324.66,-278.58 -478.13,-427.05 -190.73,-184.5 -334.76,-400.62 -394.37,-665.47"
         style="fill:#e49418;fill-opacity:1;fill-rule:nonzero;stroke:none"
         id="path32" />
      <path
         d="m 5204.75,6587.76 c -81.97,-7.91 -128.28,-61.29 -169.99,-121.21 -45.91,-65.94 -100.55,-116.7 -189.93,-100.93 -100.65,17.77 -179.63,66.42 -218.28,164.66 -41.07,104.42 -21.54,172.32 63.69,252.47 55.9,52.56 114.63,105.1 121.02,188.45 2.62,34.15 -1.6,69.7 -8.28,103.51 -17.89,90.61 -22.48,180.76 6.82,269.31 11.74,35.47 31.74,68.2 47.98,102.18 4.29,-0.9 8.58,-1.8 12.88,-2.69 0,-14.67 0.34,-29.34 -0.06,-43.99 -3.3,-119.86 41.07,-220.33 121.28,-307.75 18.55,-20.21 33.36,-45.75 43.65,-71.35 53.47,-132.98 104.93,-266.77 157.07,-400.3 3.36,-8.62 6.51,-17.33 12.15,-32.36"
         style="fill:#e49418;fill-opacity:1;fill-rule:nonzero;stroke:none"
         id="path34" />
      <path
         d="m 4089.32,6674.59 c -63.51,-394.98 0.42,-762.2 223.22,-1100.14 -89.09,33.64 -175.07,65.48 -260.54,98.58 -63.36,24.54 -81.94,78.11 -81.51,143.05 -65.79,-42.41 -91.08,-30.18 -101.6,44.77 -3.09,21.96 -3.02,44.59 -2.1,66.82 0.91,22.1 4.7,44.07 7.23,66.08 -58.35,11.83 -63.14,17.69 -44.88,74.88 15.86,49.62 35.81,97.94 58.92,160.23 -123.68,-115.62 -259.64,-137.28 -410.05,-103.25 260.89,120.22 469.59,296.76 611.31,548.98"
         style="fill:#e49418;fill-opacity:1;fill-rule:nonzero;stroke:none"
         id="path36" />
      <path
         d="m 6387.81,6302.86 c -14.99,-121.51 -59.96,-218.75 -115.46,-310.98 -110.65,-183.91 -261.4,-332.97 -421.33,-473.31 -8.11,-7.11 -26.56,-8.57 -37.77,-5.01 -54.39,17.3 -108.58,35.61 -161.64,56.61 -60.97,24.13 -87.78,77 -101.32,136.34 -27.78,121.7 26.6,261.94 131.3,340.67 12.39,-17.96 23.78,-36.63 37.22,-53.66 91.37,-115.77 260.18,-131.37 391.53,-40.41 110.84,76.75 182.19,184.92 249,297.63 7.97,13.46 15.04,27.46 28.47,52.12"
         style="fill:#e49418;fill-opacity:1;fill-rule:nonzero;stroke:none"
         id="path38" />
      <path
         d="m 5351.88,4236.66 c 126.03,11.3 215.72,-118.52 165.82,-240.18 -47.69,-116.27 -136.92,-157.29 -230.95,-153.42 -113.46,4.67 -190.92,86.54 -219.4,201.92 -33.52,135.76 19.39,247.93 90.16,355.1 100.43,152.07 230.62,277.67 369.58,393.31 206.25,171.63 418.83,335.72 623.63,509.02 170.45,144.24 333.74,297.66 434.26,502.54 31.23,63.65 49.88,133.47 73.76,198.98 -7.16,-139.11 -63.05,-262.75 -140.01,-378.17 -152.65,-228.98 -360.31,-404.26 -569.14,-577.99 -210.94,-175.48 -434.18,-337.7 -617.34,-543.62 -73.43,-82.55 -137.4,-176.76 -189.14,-274.41 -49.57,-93.55 -32.76,-194.81 32.69,-279.71 44.08,-57.19 110.97,-70.34 178.35,-54.08 75.04,18.11 127.05,67.05 144.89,144.41 24.09,104.44 -38.91,186.95 -147.16,196.3"
         style="fill:#e49418;fill-opacity:1;fill-rule:nonzero;stroke:none"
         id="path40" />
      <path
         d="m 5487.61,3798.49 c 59.5,-57.16 59.44,-126.03 38.2,-195.09 -17.36,-56.44 -53.02,-98.63 -128.22,-89.69 23.34,-76.21 67.76,-129.68 130.31,-166.68 60.76,-35.93 124.65,-66.57 188.38,-112.05 -21.49,-5.94 -42.64,-14.63 -64.53,-17.38 -162.98,-20.53 -287.8,52.71 -392.24,167.29 -105.8,116.06 -176.76,252.75 -220.76,403.28 -2.96,10.11 1.02,22.24 1.77,33.42 10.54,-3.81 23.88,-4.74 31.2,-11.86 121.15,-117.68 264.43,-126.06 398.4,-22.43 4.79,3.71 10.24,6.58 17.49,11.19"
         style="fill:#e49418;fill-opacity:1;fill-rule:nonzero;stroke:none"
         id="path42" />
      <path
         d="m 5769.15,4605.48 c 40.8,95 115.01,159.73 201.58,221.9 80.92,-185.92 160,-367.61 239.9,-551.18 -258.71,21.69 -463.29,-45.37 -558.74,-312.57 -12.66,29.65 -24.93,58.84 -37.56,87.87 -60.39,138.72 -120.12,277.73 -181.88,415.84 -14.27,31.91 -8.6,53.34 17.26,74.97 32.21,26.94 62.17,56.56 101.21,92.5 -14.54,-87.42 -19.75,-163.86 11.85,-237.95 53.76,-126.06 198.84,-186.55 332.21,-137.73 125.14,45.81 189.7,173.84 152.62,301.08 -18.75,64.34 -61.41,105.2 -125.02,119.29 -57.95,12.84 -100.93,-17.69 -134.41,-62.75 -4.4,-5.92 -6.74,-13.38 -10.03,-20.13 -3,2.96 -5.99,5.91 -8.99,8.86"
         style="fill:#e49418;fill-opacity:1;fill-rule:nonzero;stroke:none"
         id="path44" />
      <path
         d="m 6715.15,5889.23 c -19.72,-130.03 -67.31,-260.8 -141.19,-381.98 -112.07,-183.81 -265.93,-328.42 -431.67,-462.6 -126.46,-102.39 -252.61,-205.54 -373.17,-314.68 -63.07,-57.1 -108.52,-129.54 -103.17,-222.94 4.73,-82.37 32.77,-126.8 98.39,-146.88 63.42,-19.42 140.39,4.31 176.65,54.46 44.05,60.9 42.12,116.99 -6.31,183.76 3.31,2.41 6.63,4.82 9.95,7.23 13.62,-18.76 32.08,-35.66 40.07,-56.57 47.42,-124.23 -59.02,-255.76 -195.77,-243.89 -112.04,9.72 -173.39,74.58 -186.04,187.34 -11.86,105.68 23.25,196.31 96.39,264.91 120.78,113.28 248.37,219.63 376.89,324.23 189.69,154.41 381.53,307.01 505.21,523.38 53.37,93.35 92.28,194.97 133.77,284.23"
         style="fill:#e49418;fill-opacity:1;fill-rule:nonzero;stroke:none"
         id="path46" />
      <path
         d="m 5817.51,3582.68 c 145.21,11.85 219.04,60.82 250.23,168.84 8.18,28.31 3.39,60.13 8.87,89.53 5.61,30.18 16.5,59.38 34.51,88.33 -0.1,-56.62 27.66,-91.93 56.31,-135.77 42.54,-65.07 80.31,-146.71 31.16,-232.58 -21.88,-38.24 -33.23,-83.59 -59.5,-117.96 -26.53,-34.7 -64.32,-61.52 -99.73,-88.43 -18.19,-13.82 -44.36,-17.13 -62.59,-30.93 -23.67,-17.91 -40.36,-11.28 -50.22,10.32 -37.42,81.98 -72.58,164.99 -109.04,248.65"
         style="fill:#e49418;fill-opacity:1;fill-rule:nonzero;stroke:none"
         id="path48" />
      <path
         d="m 4934.47,7870.07 c 10.19,-8.62 21.12,-17.87 32.05,-27.12 -10.42,-11.2 -18.73,-27.3 -31.59,-32.84 -115.1,-49.66 -236.21,-87.96 -345.46,-147.97 -174.14,-95.66 -317.08,-231.16 -436.49,-390.85 -9.11,-12.18 -35.64,-25.93 -44.15,-21.18 -23.98,13.41 -18.12,35.82 -2.6,56.62 84.81,113.62 177.52,217.82 291.29,305.62 124.95,96.44 261.18,166.75 407.89,219.8 40.19,14.54 82.12,24.29 129.06,37.92"
         style="fill:#e49418;fill-opacity:1;fill-rule:nonzero;stroke:none"
         id="path50" />
      <path
         d="m 3891.2,7672.08 c 74.32,13.31 94.08,3.71 99.74,-55.55 1.27,-13.34 -17.05,-41.08 -23.5,-40.24 -17.84,2.31 -39.41,12.38 -49.78,26.52 -13.32,18.17 -17.16,43.28 -26.46,69.27"
         style="fill:#e49418;fill-opacity:1;fill-rule:nonzero;stroke:none"
         id="path52" />
      <path
         d="m 6309.07,3707.23 c 17.02,-22.39 36.33,-36.79 35.11,-49.16 -1.33,-13.56 -23.98,-36.98 -33.13,-35.15 -15.71,3.17 -34.92,20.59 -39.45,35.93 -2.76,9.33 19.24,25.99 37.47,48.38"
         style="fill:#e49418;fill-opacity:1;fill-rule:nonzero;stroke:none"
         id="path54" />
      <path
         d="m 6346.22,3528.9 c -27.24,-15.49 -43.75,-32.46 -56.46,-29.98 -12.65,2.48 -27.7,23.67 -29.61,38.23 -1.11,8.43 22.28,28.76 33.5,27.94 14.4,-1.04 27.66,-17.94 52.57,-36.19"
         style="fill:#e49418;fill-opacity:1;fill-rule:nonzero;stroke:none"
         id="path56" />
      <path
         d="m 6331.67,3782.62 c -25.44,-18.85 -40.06,-37.82 -51.56,-36.09 -13.51,2.04 -30.93,20.64 -33.92,34.76 -1.9,8.98 18.58,31.21 30.44,32.32 13.21,1.23 28.03,-14.75 55.04,-30.99"
         style="fill:#e49418;fill-opacity:1;fill-rule:nonzero;stroke:none"
         id="path58" />
      <path
         d="m 6208.38,3940.64 c 20.66,-24.89 40.81,-38.72 39.79,-50.77 -1.09,-13.06 -20.22,-29.79 -34.81,-34.37 -7.38,-2.33 -30,17.64 -31.38,29.24 -1.6,13.41 12.6,28.7 26.4,55.9"
         style="fill:#e49418;fill-opacity:1;fill-rule:nonzero;stroke:none"
         id="path60" />
      <path
         d="m 6158.19,3377.1 c 13.54,-27.07 27.77,-42.53 25.91,-55.73 -1.61,-11.41 -24.03,-30.2 -32.69,-27.97 -14.07,3.61 -33.47,21.5 -33.79,33.8 -0.33,12.55 19.63,25.63 40.57,49.9"
         style="fill:#ce841a;fill-opacity:1;fill-rule:nonzero;stroke:none"
         id="path62" />
      <path
         d="m 9355.91,4223.63 h 33.13 v -141.24 h 177.58 v 141.24 h 33.13 V 3897.9 h -33.13 v 154.13 H 9389.04 V 3897.9 h -33.13 v 325.73"
         style="fill:#e49418;fill-opacity:1;fill-rule:nonzero;stroke:none"
         id="path64" />
      <path
         d="m 9780.36,4013.84 h 141.24 l -70.38,171.14 z m -48.31,-115.94 h -38.63 l 141.7,325.73 h 32.19 L 10009,3897.9 h -38.63 l -35.88,85.58 h -166.55 l -35.89,-85.58"
         style="fill:#e49418;fill-opacity:1;fill-rule:nonzero;stroke:none"
         id="path66" />
      <path
         d="m 10135.8,3897.9 h -33.1 v 325.73 h 33.1 V 3897.9"
         style="fill:#e49418;fill-opacity:1;fill-rule:nonzero;stroke:none"
         id="path68" />
      <path
         d="m 10302.5,4079.62 h 58.9 c 14.7,0 27.2,1.54 37.5,4.61 10.3,3.06 18.5,7.13 24.6,12.19 6.2,5.06 10.6,11.04 13.4,17.94 2.7,6.9 4.1,14.34 4.1,22.32 0,7.66 -1.4,14.94 -4.1,21.85 -2.8,6.9 -7.2,12.96 -13.4,18.17 -6.1,5.21 -14.3,9.27 -24.6,12.19 -10.3,2.91 -22.8,4.37 -37.5,4.37 h -58.9 z m 0,-181.72 h -33.1 v 325.73 h 100.3 c 33.1,0 59.3,-7.22 78.4,-21.63 19.2,-14.42 28.8,-36.19 28.8,-65.32 0,-22.7 -7.1,-41.8 -21.4,-57.28 -14.3,-15.49 -34.9,-24.47 -61.9,-26.91 l 93.9,-154.59 h -40.5 l -89.3,151.36 h -55.2 V 3897.9"
         style="fill:#e49418;fill-opacity:1;fill-rule:nonzero;stroke:none"
         id="path70" />
      <path
         d="m 10819.6,4013.84 h 141.3 l -70.4,171.14 z m -48.3,-115.94 h -38.6 l 141.7,325.73 h 32.2 l 141.7,-325.73 h -38.7 l -35.8,85.58 h -166.6 l -35.9,-85.58"
         style="fill:#e49418;fill-opacity:1;fill-rule:nonzero;stroke:none"
         id="path72" />
      <path
         d="m 11377.5,3947.59 h 0.9 v 276.04 h 33.1 V 3897.9 h -41.4 l -194.1,278.8 h -0.9 v -278.8 h -33.2 v 325.73 h 41.4 l 194.2,-276.04"
         style="fill:#e49418;fill-opacity:1;fill-rule:nonzero;stroke:none"
         id="path74" />
      <path
         d="m 11576.1,3928.26 h 64.4 c 24.8,0 46.4,3.76 64.6,11.28 18.3,7.51 33.5,17.47 45.6,29.9 12.1,12.43 21.1,26.53 26.9,42.33 5.8,15.79 8.7,32.12 8.7,48.99 0,16.86 -2.9,33.2 -8.7,49 -5.8,15.79 -14.8,29.91 -26.9,42.32 -12.1,12.43 -27.3,22.39 -45.6,29.9 -18.2,7.52 -39.8,11.28 -64.6,11.28 h -64.4 z m -33.1,295.37 h 108.1 c 20.2,0 40.5,-3.39 60.9,-10.12 20.4,-6.76 38.8,-16.96 55.3,-30.6 16.4,-13.65 29.6,-30.67 39.7,-51.07 10.2,-20.4 15.2,-44.08 15.2,-71.08 0,-27.3 -5,-51.06 -15.2,-71.3 -10.1,-20.24 -23.3,-37.2 -39.7,-50.84 -16.5,-13.66 -34.9,-23.85 -55.3,-30.6 -20.4,-6.75 -40.7,-10.12 -60.9,-10.12 H 11543 v 325.73"
         style="fill:#e49418;fill-opacity:1;fill-rule:nonzero;stroke:none"
         id="path76" />
      <path
         d="m 12156.2,3928.26 h 63.5 c 12,0 23.2,1.23 33.6,3.69 10.4,2.45 19.5,6.21 27.1,11.27 7.7,5.06 13.8,11.42 18.2,19.09 4.5,7.66 6.7,16.86 6.7,27.61 0,21.46 -6.9,37.41 -20.7,47.84 -13.8,10.42 -34.1,15.65 -60.7,15.65 h -67.7 z m 0,152.74 h 66.7 c 8,0 15.9,1 23.7,3 7.9,1.99 14.9,5.29 21.2,9.89 6.3,4.6 11.4,10.5 15.4,17.71 4,7.2 6,16.02 6,26.45 0,3.37 -0.7,8.12 -2.1,14.27 -1.4,6.12 -4.4,12.26 -9.2,18.4 -4.7,6.13 -11.7,11.42 -20.9,15.88 -9.2,4.43 -21.6,6.66 -37.3,6.66 h -63.5 z m -33.1,142.63 h 97.1 c 13.5,0 26.5,-1.39 39.1,-4.14 12.6,-2.77 23.7,-7.37 33.6,-13.81 9.8,-6.43 17.6,-14.87 23.4,-25.3 5.9,-10.43 8.8,-23.32 8.8,-38.64 0,-17.79 -5,-33.06 -15,-45.78 -9.9,-12.73 -24.1,-21.25 -42.5,-25.54 v -0.92 c 23,-1.83 41,-9.88 54,-24.14 13.1,-14.27 19.6,-33.37 19.6,-57.29 0,-5.21 -1.3,-12.88 -3.9,-23 -2.6,-10.12 -8.1,-20.17 -16.4,-30.13 -8.2,-9.98 -20.2,-18.63 -35.9,-26 -15.6,-7.35 -36.5,-11.04 -62.5,-11.04 h -99.4 v 325.73"
         style="fill:#e49418;fill-opacity:1;fill-rule:nonzero;stroke:none"
         id="path78" />
      <path
         d="m 12491.3,3928.26 h 174.4 v -30.36 h -207.5 v 325.73 h 202 v -30.37 h -168.9 v -110.87 h 157.8 v -30.36 h -157.8 v -123.77"
         style="fill:#e49418;fill-opacity:1;fill-rule:nonzero;stroke:none"
         id="path80" />
      <path
         d="m 12835.3,4013.84 h 141.3 l -70.4,171.14 z M 12787,3897.9 h -38.6 l 141.7,325.73 h 32.2 L 13064,3897.9 h -38.7 l -35.9,85.58 h -166.5 l -35.9,-85.58"
         style="fill:#e49418;fill-opacity:1;fill-rule:nonzero;stroke:none"
         id="path82" />
      <path
         d="m 13376.5,4019.36 c 0,-13.5 -1.6,-27.83 -4.8,-43.01 -3.2,-15.19 -9.3,-29.22 -18.2,-42.11 -8.9,-12.87 -21.1,-23.54 -36.5,-31.97 -15.5,-8.43 -35.4,-12.65 -59.6,-12.65 -24.6,0 -44.5,4.22 -59.8,12.65 -15.4,8.43 -27.5,19.1 -36.4,31.97 -8.9,12.89 -14.9,26.92 -18.2,42.11 -3.2,15.18 -4.8,29.51 -4.8,43.01 v 204.27 h 33.1 v -200.6 c 0,-15.64 1.6,-29.06 4.6,-40.24 3.1,-11.21 7.2,-20.63 12.2,-28.31 5.1,-7.66 10.8,-13.72 17.1,-18.17 6.2,-4.44 12.5,-7.9 18.8,-10.34 6.3,-2.46 12.4,-4.07 18.2,-4.84 5.8,-0.77 10.9,-1.15 15.2,-1.15 4,0 8.9,0.38 14.9,1.15 6,0.77 12.1,2.38 18.4,4.84 6.3,2.44 12.6,5.9 18.9,10.34 6.3,4.45 12,10.51 17,18.17 5.1,7.68 9.1,17.1 12.2,28.31 3.1,11.18 4.6,24.6 4.6,40.24 v 200.6 h 33.1 v -204.27"
         style="fill:#e49418;fill-opacity:1;fill-rule:nonzero;stroke:none"
         id="path84" />
      <path
         d="m 13612.8,3897.9 h -33.1 v 295.36 h -109 v 30.37 h 251.1 v -30.37 h -109 V 3897.9"
         style="fill:#e49418;fill-opacity:1;fill-rule:nonzero;stroke:none"
         id="path86" />
      <path
         d="m 13948,3897.9 h -33.1 v 140.32 l -121.9,185.41 h 41.4 l 97,-153.67 97.1,153.67 h 41.4 L 13948,4038.22 V 3897.9"
         style="fill:#e49418;fill-opacity:1;fill-rule:nonzero;stroke:none"
         id="path88" />
      <path
         d="M 14256.5,4067.15 H 15303"
         style="fill:none;stroke:#e49418;stroke-width:55.257;stroke-linecap:butt;stroke-linejoin:miter;stroke-miterlimit:10;stroke-dasharray:none;stroke-opacity:1"
         id="path90" />
      <path
         d="M 8135.1,4067.15 H 9181.57"
         style="fill:none;stroke:#e49418;stroke-width:55.257;stroke-linecap:butt;stroke-linejoin:miter;stroke-miterlimit:10;stroke-dasharray:none;stroke-opacity:1"
         id="path92" />
      <path
         d="m 8573.4,4754.67 h 296.96 c 29.58,0 66.14,4.6 109.63,13.88 43.46,9.25 85.57,30.04 126.29,62.45 40.68,32.34 75.37,78.63 104.07,138.77 28.67,60.09 43.03,141.99 43.03,245.62 0,94.37 -14.36,172.53 -43.03,234.54 -28.7,61.96 -63.39,111.01 -104.07,147.08 -40.72,36.08 -82.83,61.06 -126.29,74.93 -43.49,13.88 -80.05,20.82 -109.63,20.82 H 8573.4 Z m 0,974.17 h 255.34 c 29.57,0 63.83,3.69 102.69,11.12 38.86,7.36 75.36,25.4 109.63,54.11 34.22,28.67 63.35,72.6 87.42,131.83 24.03,59.21 36.09,140.59 36.09,244.24 0,83.27 -12.06,153.09 -36.09,209.54 -24.07,56.43 -53.2,101.31 -87.42,134.61 -34.27,33.32 -70.34,57.34 -108.24,72.17 -37.95,14.79 -70.77,22.2 -98.53,22.2 H 8573.4 Z m 582.84,-988.05 c -68.47,-20.38 -143.42,-30.52 -224.81,-30.52 h -702.19 v 19.42 c 35.13,9.25 62.45,29.58 81.87,61.05 19.43,31.45 29.15,76.78 29.15,136.01 v 1509.82 c 0,59.21 -9.72,104.52 -29.15,136.01 -19.42,31.43 -46.74,51.78 -81.87,61.06 v 19.44 h 660.55 c 73.99,0 141.98,-9.72 204,-29.16 61.97,-19.42 116.1,-49.05 162.36,-88.81 46.23,-39.82 82.31,-89.77 108.24,-149.87 25.9,-60.14 38.86,-131.83 38.86,-215.1 0,-133.21 -30.53,-235.48 -91.58,-306.67 -61.07,-71.26 -140.64,-119.84 -238.69,-145.73 122.12,-22.2 222.46,-74.02 301.13,-155.43 78.62,-81.42 117.96,-197.04 117.96,-346.92 0,-88.82 -13.88,-164.71 -41.64,-227.58 -27.76,-62.93 -66.61,-115.17 -116.57,-156.81 -49.95,-41.63 -109.2,-71.73 -177.62,-90.21"
         style="fill:#e49418;fill-opacity:1;fill-rule:nonzero;stroke:none"
         id="path94" />
      <path
         d="m 10874.5,5193.19 c 5.5,-5.54 11.1,-11.1 16.6,-16.66 l -80.4,-466.26 H 9608.9 v 19.42 c 35.12,9.25 62.44,29.58 81.87,61.05 19.43,31.45 29.15,76.78 29.15,136.01 v 1507.07 c 0,61.05 -9.72,107.27 -29.15,138.76 -19.43,31.43 -46.75,51.78 -81.87,61.06 v 19.44 h 455.2 v -19.44 c -35.2,-9.28 -62.5,-29.63 -81.91,-61.06 -19.43,-31.49 -29.14,-77.71 -29.14,-138.76 V 4738.03 h 424.65 c 92.5,0 168.3,19.86 227.6,59.65 59.2,39.77 106.8,86.06 142.9,138.79 36.1,52.74 62,104.98 77.7,156.81 15.7,51.78 25.4,89.72 29.2,113.79 7.3,-5.54 13.8,-10.19 19.4,-13.88"
         style="fill:#e49418;fill-opacity:1;fill-rule:nonzero;stroke:none"
         id="path96" />
      <path
         d="m 11893.6,4732.47 c -66.6,-33.3 -148.9,-49.95 -247,-49.95 -107.3,0 -197.5,13.43 -270.6,40.23 -73.1,26.8 -132.8,63.83 -179,111.03 -46.3,47.18 -81.5,102.69 -105.5,166.53 -24,63.83 -40.7,133.2 -49.9,208.14 -9.3,74.95 -14.4,153.09 -15.3,234.54 -1,81.38 -1.4,162.78 -1.4,244.24 v 746.59 c 0,114.7 -37,181.31 -111,199.82 v 19.44 h 455.2 v -19.44 c -31.5,-9.28 -57.9,-27.32 -79.1,-54.12 -21.3,-26.84 -32,-67.08 -32,-120.72 v -732.72 c 0,-79.58 -0.4,-142.95 -1.3,-190.12 -1,-47.18 -1.4,-78.18 -1.4,-92.97 0,-66.62 2.3,-134.61 6.9,-204.01 4.6,-69.37 13.4,-136.94 26.4,-202.6 12.9,-65.7 33.7,-123.06 62.4,-172.08 28.7,-49.05 66.6,-87.41 113.8,-115.17 47.2,-27.76 107.8,-41.64 181.8,-41.64 124,0 219.7,29.14 287.3,87.44 67.5,58.27 116.5,132.73 147.1,223.42 30.5,90.63 48.5,190.54 54.1,299.73 5.5,109.16 8.3,214.63 8.3,316.41 v 824.31 c 0,49.95 -10.7,89.23 -31.9,117.94 -21.3,28.67 -47.7,47.62 -79.1,56.9 v 19.44 h 269.2 v -19.44 c -35.2,-9.28 -62.9,-29.63 -83.3,-61.06 -20.3,-31.49 -30.5,-76.8 -30.5,-136.01 v -802.08 c 0,-51.83 0.5,-96.71 1.4,-134.61 0.9,-37.94 1.4,-60.63 1.4,-67.99 0,-59.26 -3.7,-122.6 -11.1,-190.12 -7.4,-67.58 -20.8,-135.1 -40.3,-202.61 -19.4,-67.57 -49,-127.66 -88.8,-180.4 -39.8,-52.74 -92,-94.84 -156.8,-126.29"
         style="fill:#e49418;fill-opacity:1;fill-rule:nonzero;stroke:none"
         id="path98" />
      <path
         d="m 13273.6,4713.05 c -59.3,-20.35 -119.4,-30.53 -180.4,-30.53 -81.5,0 -150.4,9.72 -206.8,29.13 -56.5,19.44 -104.6,40.26 -144.3,62.46 -39.8,22.19 -74.1,43.01 -102.7,62.43 -28.7,19.44 -55.1,29.16 -79.1,29.16 -14.9,0 -28.7,-4.65 -41.7,-13.88 -12.9,-9.27 -24,-20.82 -33.3,-34.7 -9.2,-13.88 -17.1,-29.13 -23.6,-45.79 -6.5,-16.66 -9.7,-31.48 -9.7,-44.42 h -27.7 v 735.49 h 41.6 c 0,-127.66 15.7,-237.76 47.2,-330.26 31.4,-92.56 74.5,-168.87 129,-228.99 54.6,-60.14 118.4,-104.07 191.5,-131.82 73.1,-27.76 150.4,-41.64 231.8,-41.64 35.1,0 70.8,7.38 106.9,22.22 36,14.77 68.4,36.08 97.1,63.83 28.7,27.74 51.8,60.57 69.4,98.51 17.5,37.93 26.4,80.03 26.4,126.29 0,94.37 -22.3,178.07 -66.7,251.18 -44.4,73.06 -100.4,139.68 -167.9,199.82 -67.5,60.12 -140.6,116.57 -219.2,169.31 -78.7,52.73 -151.8,108.25 -219.3,166.52 -67.6,58.3 -123.5,120.73 -167.9,187.34 -44.4,66.62 -66.6,144.33 -66.6,233.14 0,66.62 12.9,126.29 38.8,179.03 25.9,52.73 61.1,98.04 105.5,135.98 44.4,37.9 95.8,66.62 154,86.04 58.3,19.44 119.8,29.16 184.6,29.16 75.9,0 139.2,-9.3 190.1,-27.76 50.9,-18.53 93.9,-39.35 129.1,-62.46 35.1,-23.15 63.8,-43.97 86,-62.45 22.2,-18.51 43.5,-27.74 63.9,-27.74 11.1,0 22.6,5.07 34.6,15.26 12.1,10.14 22.3,22.2 30.6,36.08 8.3,13.87 15.2,28.67 20.8,44.41 5.5,15.71 8.3,29.14 8.3,40.24 h 30.5 v -735.5 h -41.6 c 0,144.33 -16.6,264.59 -49.9,360.81 -33.3,96.2 -75.5,173 -126.3,230.36 -50.9,57.34 -106.4,97.57 -166.5,120.73 -60.2,23.13 -117.1,34.7 -170.7,34.7 -37.1,0 -72.7,-7.9 -106.9,-23.58 -34.2,-15.75 -64.8,-37.03 -91.6,-63.83 -26.8,-26.85 -48.1,-57.39 -63.8,-91.6 -15.8,-34.27 -23.6,-70.77 -23.6,-109.63 0,-77.71 22.2,-147.1 66.6,-208.16 44.4,-61.05 99.9,-118.44 166.5,-172.08 66.6,-53.67 138.3,-106.85 215.1,-159.59 76.8,-52.73 148.5,-109.63 215.1,-170.68 66.6,-61.06 122.1,-129.05 166.5,-204 44.5,-74.94 66.7,-162.37 66.7,-262.28 0,-86.99 -14.4,-161.92 -43.1,-224.8 -28.7,-62.92 -66.6,-114.28 -113.8,-154.05 -47.1,-39.81 -100.3,-68.95 -159.5,-87.41"
         style="fill:#e49418;fill-opacity:1;fill-rule:nonzero;stroke:none"
         id="path100" />
      <path
         d="m 14097.6,4790.74 c 18.4,-31.47 45.3,-51.8 80.5,-61.05 v -19.42 h -455.2 v 19.42 c 35.1,9.25 62.4,29.58 81.9,61.05 19.4,31.45 29.1,76.78 29.1,136.01 v 1509.82 c 0,59.21 -9.7,104.52 -29.1,136.01 -19.5,31.43 -46.8,51.78 -81.9,61.06 v 19.44 h 455.2 v -19.44 c -35.2,-9.28 -62.5,-29.63 -81.9,-61.06 -19.4,-31.49 -29.2,-76.8 -29.2,-136.01 v -768.78 h 793.8 v 768.78 c 0,59.21 -10.2,104.52 -30.5,136.01 -20.4,31.43 -47.2,51.78 -80.5,61.06 v 19.44 h 455.2 v -19.44 c -35.2,-9.28 -62.5,-29.63 -81.9,-61.06 -19.4,-31.49 -29.1,-76.8 -29.1,-136.01 V 4926.75 c 0,-59.23 9.7,-104.56 29.1,-136.01 19.4,-31.47 46.7,-51.8 81.9,-61.05 v -19.42 h -455.2 v 19.42 c 33.3,9.25 60.1,29.58 80.5,61.05 20.3,31.45 30.5,76.78 30.5,136.01 v 696.64 H 14067 v -696.64 c 0,-59.23 10.2,-104.56 30.6,-136.01"
         style="fill:#e49418;fill-opacity:1;fill-rule:nonzero;stroke:none"
         id="path102" />
    </g>
  </g>
</svg>
